# xmcd
#
# Track frame offsets: 
#        150
#        4918
#        28703
#        47247
#        69180
#        92510
#        96980
#        111633
#        130756
#        157806
#        181881
#        209585
#
# Disc length: 3102 seconds
#
# Revision: 0
# Processed by: cddbd v1.5.2PL0 Copyright (c) Steve Scherf et al.
# Submitted via: ExactAudioCopy v1.0b3
#
DISCID=9e0c1c0c
DTITLE=さかいゆう - YES!!
DYEAR=2010
DGENRE=JPop
TTITLE0=N.A.M.E
TTITLE1=ストーリー～album ver.～
TTITLE2=おはようサンシャイン
TTITLE3=ウシミツビト
TTITLE4=ラビリンス
TTITLE5=↓
TTITLE6=Yeeeeahs!!（feat.RUMI）
TTITLE7=まなざし☆デイドリーム～album ver.～
TTITLE8=Room
TTITLE9=週末モーニン
TTITLE10=ティーンエイジャー
TTITLE11=train～album ver.～
EXTD=
EXTT0=
EXTT1=
EXTT2=
EXTT3=
EXTT4=
EXTT5=
EXTT6=
EXTT7=
EXTT8=
EXTT9=
EXTT10=
EXTT11=
PLAYORDER=
